HIERARCHY
ROOT Hips
{
	OFFSET 0.000000 0.000000 0.000000
	CHANNELS 6 Xposition Yposition Zposition Zrotation Yrotation Xrotation 
	JOINT LHipJoint
	{
		OFFSET 0.000000 0.000000 0.000000
		CHANNELS 3 Zrotation Yrotation Xrotation
		JOINT LeftUpLeg
		{
			OFFSET 1.363060 -1.794630 0.839290
			CHANNELS 3 Zrotation Yrotation Xrotation
			JOINT LeftLeg
			{
				OFFSET 2.448110 -6.726130 0.000000
				CHANNELS 3 Zrotation Yrotation Xrotation
				JOINT LeftFoot
				{
					OFFSET 2.562200 -7.039590 0.000000
					CHANNELS 3 Zrotation Yrotation Xrotation
					JOINT LeftToeBase
					{
						OFFSET 0.157640 -0.433110 2.322550
						CHANNELS 3 Zrotation Yrotation Xrotation
						End Site
						{
							OFFSET 0.000000 0.000000 0.000000
						}
					}
				}
			}
		}
	}
	JOINT RHipJoint
	{
		OFFSET 0.000000 0.000000 0.000000
		CHANNELS 3 Zrotation Yrotation Xrotation
		JOINT RightUpLeg
		{
			OFFSET -1.305520 -1.794630 0.839290
			CHANNELS 3 Zrotation Yrotation Xrotation
			JOINT RightLeg
			{
				OFFSET -2.542530 -6.985550 0.000000
				CHANNELS 3 Zrotation Yrotation Xrotation
				JOINT RightFoot
				{
					OFFSET -2.568260 -7.056230 0.000000
					CHANNELS 3 Zrotation Yrotation Xrotation
					JOINT RightToeBase
					{
						OFFSET -0.164730 -0.452590 2.363150
						CHANNELS 3 Zrotation Yrotation Xrotation
						End Site
						{
							OFFSET 0.000000 0.000000 0.000000
						}
					}
				}
			}
		}
	}
	JOINT LowerBack
	{
		OFFSET 0.000000 0.000000 0.000000
		CHANNELS 3 Zrotation Yrotation Xrotation
		JOINT Spine
		{
			OFFSET 0.028270 2.035590 -0.193380
			CHANNELS 3 Zrotation Yrotation Xrotation
			JOINT Spine1
			{
				OFFSET 0.056720 2.048850 -0.042750
				CHANNELS 3 Zrotation Yrotation Xrotation
				JOINT Neck
				{
					OFFSET 0.000000 0.000000 0.000000
					CHANNELS 3 Zrotation Yrotation Xrotation
					JOINT Neck1
					{
						OFFSET -0.054170 1.746240 0.172020
						CHANNELS 3 Zrotation Yrotation Xrotation
						JOINT Head
						{
							OFFSET 0.104070 1.761360 -0.123970
							CHANNELS 3 Zrotation Yrotation Xrotation
							End Site
							{
								OFFSET 0.000000 0.000000 0.000000
							}
						}
					}
				}
				JOINT LeftShoulder
				{
					OFFSET 0.000000 0.000000 0.000000
					CHANNELS 3 Zrotation Yrotation Xrotation
					JOINT LeftArm
					{
						OFFSET 3.362410 1.200890 -0.311210
						CHANNELS 3 Zrotation Yrotation Xrotation
						JOINT LeftForeArm
						{
							OFFSET 4.983000 -0.000000 -0.000000
							CHANNELS 3 Zrotation Yrotation Xrotation
							JOINT LeftHand
							{
								OFFSET 3.483560 -0.000000 -0.000000
								CHANNELS 3 Zrotation Yrotation Xrotation
								JOINT LeftFingerBase
								{
									OFFSET 0.000000 0.000000 0.000000
									CHANNELS 3 Zrotation Yrotation Xrotation
									JOINT LeftHandIndex1
									{
										OFFSET 0.715260 -0.000000 -0.000000
										CHANNELS 3 Zrotation Yrotation Xrotation
										End Site
										{
											OFFSET 0.000000 0.000000 0.000000
										}
									}
								}
								JOINT LThumb
								{
									OFFSET 0.000000 0.000000 0.000000
									CHANNELS 3 Zrotation Yrotation Xrotation
									End Site
									{
										OFFSET 0.000000 0.000000 0.000000
									}
								}
							}
						}
					}
				}
				JOINT RightShoulder
				{
					OFFSET 0.000000 0.000000 0.000000
					CHANNELS 3 Zrotation Yrotation Xrotation
					JOINT RightArm
					{
						OFFSET -3.136600 1.374050 -0.404650
						CHANNELS 3 Zrotation Yrotation Xrotation
						JOINT RightForeArm
						{
							OFFSET -5.241900 -0.000000 -0.000000
							CHANNELS 3 Zrotation Yrotation Xrotation
							JOINT RightHand
							{
								OFFSET -3.444170 -0.000000 -0.000000
								CHANNELS 3 Zrotation Yrotation Xrotation
								JOINT RightFingerBase
								{
									OFFSET 0.000000 0.000000 0.000000
									CHANNELS 3 Zrotation Yrotation Xrotation
									JOINT RightHandIndex1
									{
										OFFSET -0.622530 -0.000000 -0.000000
										CHANNELS 3 Zrotation Yrotation Xrotation
										End Site
										{
											OFFSET 0.000000 0.000000 0.000000
										}
									}
								}
								JOINT RThumb
								{
									OFFSET 0.000000 0.000000 0.000000
									CHANNELS 3 Zrotation Yrotation Xrotation
									End Site
									{
										OFFSET 0.000000 0.000000 0.000000
									}
								}
							}
						}
					}
				}
			}
		}
	}
}
MOTION
Frames: 6
Frame Time: 0.008333
-2.671029 18.396207 -10.440844 -58.477306 79.640870 -64.103248 13.786519 2.789675 -1.294637 -32.247213 -5.529102 1.263609 8.135508 11.050151 38.524308 -0.539574 -16.406761 -40.628748 0.604300 4.976100 13.840300 -12.056759 -1.648363 -3.664254 45.772547 -5.071477 4.640355 -7.237693 -10.377862 32.383507 -2.063255 6.799083 -37.875161 -0.003900 -0.401200 1.102400 -0.600942 1.357571 2.665364 18.824315 0.270517 14.786801 -4.589073 1.294133 -10.327612 -9.417850 -2.166906 -29.252628 0.711780 0.062730 34.158216 2.395100 -0.557000 12.232600 -0.750692 0.772460 1.877834 -96.306064 6.302435 19.896715 20.906238 -30.879453 -3.418665 3.265008 4.648679 -0.515567 24.239424 23.742850 7.199000 -7.125000 0.000000 0.000000 -7.259800 50.309500 -0.954400 -2.693192 -0.859663 0.894869 88.680916 -3.006521 14.256910 -19.232011 26.263539 -2.739313 -2.261982 0.038144 -9.124029 -26.653172 11.165799 -4.929200 7.125000 0.000000 0.000000 1.877300 -17.989300 1.206400 
-2.667777 18.385547 -10.465144 -61.970209 79.095424 -68.007114 13.810439 2.636332 -1.391026 -31.565135 -5.500877 1.676799 8.161797 11.081208 38.847348 -0.574440 -16.671200 -40.827577 0.721500 5.427800 15.132900 -11.849311 -1.617718 -3.643777 46.035349 -5.936827 5.023001 -7.072999 -10.315067 31.919613 -1.990701 7.025094 -37.650412 -0.005500 -0.479900 1.318500 0.395578 1.254858 2.938627 19.198684 0.078054 15.134981 -5.161194 1.129634 -10.415161 -9.543721 -2.198013 -29.282794 0.933062 0.050493 34.532280 2.447000 -0.529800 12.367700 -0.702577 0.745554 1.861135 -96.308628 6.247113 20.119679 20.927286 -30.995242 -3.442878 3.281542 4.669810 -0.791801 24.497657 23.764304 7.287800 -7.125000 0.000000 0.000000 -7.050500 50.365700 -0.936500 -2.777277 -0.908273 0.857686 88.830622 -2.839989 14.120927 -19.130538 26.133987 -2.708337 -2.304726 0.067896 -9.537604 -26.991325 11.584134 -5.165600 7.125000 0.000000 0.000000 1.683800 -17.553000 1.098100 
-2.661544 18.383018 -10.476255 -63.048526 79.095723 -69.351207 13.763163 2.563856 -1.400894 -31.451919 -5.409804 1.890926 8.151191 11.084589 38.943823 -0.662054 -16.962071 -40.800697 0.848800 5.875900 16.424900 -11.802386 -1.581797 -3.613621 46.198396 -5.772451 5.477993 -7.050059 -10.305910 31.750245 -2.162790 6.334129 -37.748902 -0.006800 -0.534000 1.467400 0.704341 1.302538 3.015176 18.988575 0.101551 15.479010 -5.243178 1.137135 -10.492720 -9.360342 -2.251491 -29.313001 0.757225 -0.024990 34.854741 2.357200 -0.578200 12.469800 -0.669933 0.737304 1.850169 -96.206188 6.176795 20.577056 20.953576 -31.040072 -3.453645 3.269770 4.698694 -0.833933 24.444982 23.934190 7.323300 -7.125000 0.000000 0.000000 -7.136500 50.509200 -0.973200 -2.785406 -0.940369 0.816299 89.076422 -2.644990 12.820425 -18.941533 25.899015 -2.622003 -2.214993 0.183581 -8.055508 -26.129936 12.003142 -5.142400 7.125000 0.000000 0.000000 2.239300 -17.234600 1.476400 
-2.653052 18.383108 -10.478965 -63.890170 79.099369 -70.399353 13.758505 2.516150 -1.416335 -31.407778 -5.400353 2.097695 8.154053 11.109329 39.068863 -0.662216 -17.017944 -40.835373 0.783300 5.650400 15.773200 -11.723210 -1.527175 -3.620895 46.296063 -5.677591 5.865117 -7.025015 -10.293586 31.603909 -2.250367 5.930513 -37.743038 -0.023000 -0.979400 2.692200 0.548221 1.306978 3.107796 19.272360 0.056424 15.606584 -5.166881 1.159678 -10.492650 -9.241388 -2.187929 -29.209021 0.436982 0.117977 35.115983 2.293400 -0.563200 12.540500 -0.672358 0.731401 1.850843 -96.385465 6.153887 20.679240 20.965219 -31.084051 -3.462966 3.245038 4.677401 -0.763215 24.264839 23.807483 7.226400 -7.125000 0.000000 0.000000 -7.249400 50.365500 -0.963100 -2.906128 -0.937405 0.794443 89.018240 -2.453065 11.367605 -18.714206 25.563255 -2.495491 -1.987710 0.337693 -5.037215 -24.052290 12.251155 -4.778900 7.125000 0.000000 0.000000 3.546700 -17.200700 2.343800 
-2.644742 18.379314 -10.467402 -63.552995 78.812428 -70.184626 13.778385 2.502334 -1.490587 -31.127605 -5.244027 2.268443 8.157685 11.138224 39.148796 -0.561387 -16.847131 -41.034518 0.637800 5.109600 14.221500 -11.626617 -1.452453 -3.580871 46.703423 -5.125782 6.196640 -7.023200 -10.292696 31.596451 -2.265870 5.820243 -37.684996 -0.124500 -2.274600 6.265300 0.045643 1.301443 3.097093 20.070114 -0.030506 15.623369 -4.997945 1.215157 -10.333509 -9.274613 -2.025488 -29.054360 0.277759 0.409460 35.371604 2.329200 -0.470800 12.619100 -0.704133 0.736301 1.849047 -96.728050 6.136858 20.307597 20.970494 -31.128583 -3.472128 3.247890 4.635720 -0.578987 24.239432 23.625227 7.166100 -7.125000 0.000000 0.000000 -7.216900 50.202200 -0.929600 -3.096061 -0.893434 0.813198 88.758466 -2.340163 11.798538 -18.649530 25.468188 -2.481786 -1.985119 0.288602 -5.261080 -23.882753 11.865574 -4.602900 7.125000 0.000000 0.000000 3.652100 -17.586600 2.382800 
-2.643477 18.373894 -10.493419 -64.386391 78.760618 -70.883959 13.836652 2.530880 -1.447491 -31.200865 -5.481858 2.101320 8.185820 11.168137 39.302087 -0.545510 -16.814409 -41.069553 0.685500 5.293400 14.747400 -11.601986 -1.469542 -3.633203 46.504463 -5.539151 5.999596 -6.988574 -10.262787 31.546389 -2.067828 6.645358 -37.576420 -0.222500 -3.036200 8.379500 0.155156 1.146474 2.994888 20.316440 -0.208780 15.517977 -5.060457 1.114556 -10.243660 -9.226921 -1.857239 -29.056636 0.091461 0.725173 35.843490 2.342400 -0.361500 12.748700 -0.721230 0.710324 1.859269 -97.017102 6.109300 19.864568 20.949759 -31.157111 -3.476394 3.294210 4.617255 -0.347763 24.482396 23.655402 7.259900 -7.125000 0.000000 0.000000 -7.017400 50.277500 -0.916800 -3.152850 -0.899821 0.824990 88.510798 -2.263328 12.748601 -18.572632 25.323421 -2.479765 -2.135909 0.257932 -7.069504 -25.076687 12.227840 -4.985900 7.125000 0.000000 0.000000 2.927700 -17.130400 1.938000 
